/* XPM */
static char *_485559581b74099f9f31e335c1f0753qfekOsZdWgiTD2yG[] = {
/* columns rows colors chars-per-pixel */
"32 32 8 1 ",
"  c None",
". c #02000D",
"X c #040216",
"o c #05021A",
"O c #0B0823",
"+ c #218615",
"@ c #33AD24",
"# c #99E550",
/* pixels */
"    @@++@@############@@++++    ",
"    @@++@@############@@++++    ",
"  @@##++++++++##@@@@++++@@++++  ",
"  @@##++++++++##@@@@++++@@++++  ",
"##++@@@@....++..OOoo@@++..@@####",
"##++@@@@....++..OOoo@@++..@@####",
"####..@@@@....@@XX..@@..@@@@++##",
"####..@@@@....@@XX..@@..@@@@++##",
"##++++......@@++........@@++++##",
"##++++......@@++........@@++++##",
"##++@@@@..................++++##",
"##++@@@@..................++++##",
"##@@ooXX..............@@..++++##",
"##@@ooXX..............@@..++++##",
"##@@oo................++@@++..##",
"##@@oo................++@@++..##",
"####++@@++................OO..##",
"####++@@++................OO..##",
"##++++..@@................oo@@##",
"##++++..@@................oo@@##",
"##++....................@@..++##",
"##++....................@@..++##",
"@@++++@@..........@@..XX++....@@",
"@@++++@@..........@@..XX++....@@",
"++++....++....XX@@....@@....@@++",
"++++....++....XX@@....@@....@@++",
"@@##@@......oooo++++....@@@@++++",
"@@##@@......oooo++++....@@@@++++",
"  @@++##++++@@..##++..++++##++  ",
"  @@++##++++@@..##++..++++##++  ",
"    ########################    ",
"    ########################    "
};
