/* XPM */
static char *eb5e7b0ca2db4f1cfea1b5636957c70bkpuyzgFQODsE2Gj1[] = {
/* columns rows colors chars-per-pixel */
"44 44 25 1 ",
"  c None",
". c #181818",
"X c #251F1C",
"o c #1B1F20",
"O c #242723",
"+ c #372F2A",
"@ c #393934",
"# c #66342B",
"$ c #46443C",
"% c #50463E",
"& c #1A425F",
"* c #5E5548",
"= c #746A60",
"- c #9D5A4D",
"; c #887765",
": c #A8907C",
"> c #D5907E",
", c #256E98",
"< c #978D81",
"1 c #BDB4A5",
"2 c gray69",
"3 c #FFDCCD",
"4 c #EAE6DD",
"5 c #F8F8E0",
"6 c white",
/* pixels */
"                                            ",
"                                            ",
"                                            ",
"                                            ",
"                                            ",
"                                            ",
"                                            ",
"                                            ",
"                                            ",
"                                            ",
"                                            ",
"                                            ",
"                    %+++                    ",
"                   %=<<=+                   ",
"                  %14441<+                  ",
"                 %<414441<+                 ",
"                 %414<44<1+                 ",
"                %<6=64=66=<+                ",
"                %14%=41%41=+                ",
"                +4%>+<4=%4%+                ",
"                +4%..%1..1<X                ",
"                X4+2&3=&2=1X                ",
"                X1+5,55=5%1X                ",
"                +1+#>33>%+1+                ",
"               +%<o%####%o<%+               ",
"               X=X<Oo>>oo<X=X               ",
"              X=#>X%@OO@%X>#=X              ",
"               X.Oo.;**;.oO.X               ",
"               #>3-..oo..-3>#               ",
"               .*@O.O*$o.O@*.               ",
"              .O;O..O$@O..O;O.              ",
"              .@*O.>oOoo>.O*@.              ",
"              O*@..oo3>oO..@*O              ",
"             O@*O.O@o@OO@O.O*@O             ",
"             O*O*.-3>oo>3-.*O*O             ",
"              .O@.>3O..oOo.@O.              ",
"               ...@*@o.O*O...               ",
"                 .O@O..O;@.                 ",
"                 .*@.  .*:.                 ",
"                 .*O.  .@;.                 ",
"                .O@O.  .O@O.                ",
"                .O$O.  .O$@.                ",
"               oO*;O.  .O:;Oo               ",
"                oo..    ..oo                "
};
