/* XPM */
static char *decfc7daa3144cf4ccbf32c13facba2aXG3k0Zn2A85usSeq[] = {
/* columns rows colors chars-per-pixel */
"44 44 25 1 ",
"  c None",
". c #181818",
"X c #251F1C",
"o c #1B1F20",
"O c #242723",
"+ c #372F2A",
"@ c #393934",
"# c #65342B",
"$ c #66342B",
"% c #46443C",
"& c #50463E",
"* c #1A425F",
"= c #5E5548",
"- c #746A60",
"; c #9D5A4D",
": c #887765",
"> c #A8907C",
", c #D5907E",
"< c #978D81",
"1 c #BDB4A5",
"2 c gray69",
"3 c #FFDCCD",
"4 c #EAE6DD",
"5 c #F8F8E0",
"6 c white",
/* pixels */
"                                            ",
"                                            ",
"                                            ",
"                                            ",
"                                            ",
"                                            ",
"                                            ",
"                                            ",
"                                            ",
"                                            ",
"                                            ",
"                                            ",
"                    &++++                   ",
"                   &-<<--+                  ",
"                  &<14441-+                 ",
"                 &<444144<+                 ",
"                 &4<444<41-+                ",
"                &4-6-661<4<+                ",
"                &4&41&44-11X                ",
"                &1+<4-&4&-1X                ",
"                +<.&4..<1&<X                ",
"                +-*,<*2-1&<-X               ",
"                +-,55-5&1+&<+               ",
"                +<$33,-+1X+<-+              ",
"                +<+$$$$+<X-&<+              ",
"                +-o,,oo<+$+&1-+             ",
"                 ++OO@$&3,$+-1-+            ",
"                 O:=:%..o..+&-X             ",
"                 +.o...;3,$+-&X             ",
"                 +.=@o.O@=O&-&X             ",
"                 ..O%O.O:@.-+X              ",
"                 .,oOOo@=o.<+               ",
"                .O.O3,.OOOO.X               ",
"                o=o@Oo.O=@O.                ",
"                o@.3,o.=O=@.                ",
"                 Oo3.o,.o@o                 ",
"                  .@.o=O.o                  ",
"                  .=O.%:O.                  ",
"                  .=O.@>@.                  ",
"                  .@@o.@:%.                 ",
"                  .@=o..o@o.                ",
"                 .@=@o..O%O.                ",
"                  oo.. .=>o                 ",
"                        oo                  "
};
