/* XPM */
static char *e0ade839155d4bd4c39c863865c7ce5cOxrUWQuGlVdU03Bz[] = {
/* columns rows colors chars-per-pixel */
"44 44 24 1 ",
"  c None",
". c #181818",
"X c #251F1C",
"o c #1B1F20",
"O c #242723",
"+ c #372F2A",
"@ c #393934",
"# c #66342B",
"$ c #46443C",
"% c #50463E",
"& c #1A425F",
"* c #5E5548",
"= c #746A60",
"- c #9D5A4D",
"; c #887765",
": c #A8907C",
"> c #D5907E",
", c #978D81",
"< c #BDB4A5",
"1 c gray69",
"2 c #FFDCCD",
"3 c #EAE6DD",
"4 c #F8F8E0",
"5 c white",
/* pixels */
"                                            ",
"                                            ",
"                                            ",
"                                            ",
"                                            ",
"                                            ",
"                                            ",
"                                            ",
"                                            ",
"                                            ",
"                                            ",
"                                            ",
"                       ++++%                ",
"                      +==,,=%               ",
"                     +=<333<,%              ",
"                     +,33<333,%             ",
"                    +=<3,333,3%             ",
"                    +,3,<55=5=3%            ",
"                    X<<=33%<3%3%            ",
"                    X<=%3%=3,+<%            ",
"                    X,%<,..3%.,+            ",
"                    X,%<=1&,>&=+            ",
"                    +,+<%4=44>=+            ",
"                   +=,X<+=>22#,+            ",
"                   +,%X,+####+,+            ",
"                  +=<+#+,o>>o>=+            ",
"                 +=<+#>2%@OO@2+-            ",
"                  X=..o..$;*;OO.            ",
"                  X%#>2-...o..2>#           ",
"                  XOO*@O.o@*O.O@.           ",
"                   .@;O.oOO$O.O;o.          ",
"                  .o;@o.>ooOo>.*O.          ",
"                  .O*O.oOo>2oO.O*O.         ",
"                 .O@*O.O@oO$O@o@@*o         ",
"                 .@*O*.>2>oO>2.*o@o         ",
"                  o@o..oOo.o@2o..O          ",
"                   o. .O*o..o@o             ",
"                     .O;$. .O*.             ",
"                     .@:@. .O*.             ",
"                     .$;.  .o@.             ",
"                    .o@O.  .o*@.            ",
"                    .O$O.  .o@;@.           ",
"                    .*:*.   ..oo            ",
"                     o@o                    "
};
