/* XPM */
static char *_10e62b0a95248f484d2b5ee8ee27580Puq7Ne7t2YN0gyXD[] = {
/* columns rows colors chars-per-pixel */
"44 44 19 1 ",
"  c None",
". c #181818",
"X c #251F1C",
"o c #1B1F20",
"O c #242723",
"+ c #372F2A",
"@ c #393934",
"# c #50463E",
"$ c #5E5548",
"% c #746A60",
"& c #9D5A4D",
"* c #887765",
"= c #A8907C",
"- c #D5907E",
"; c #978D81",
": c #BDB4A5",
"> c #FFDCCD",
", c #EAE6DD",
"< c white",
/* pixels */
"                                            ",
"                                            ",
"                                            ",
"                                            ",
"                                            ",
"                                            ",
"                                            ",
"                                            ",
"                                            ",
"                                            ",
"                                            ",
"                                            ",
"                    #+++                    ",
"                   #%;;%+                   ",
"                  #;,:,,:+                  ",
"                 +;,,,,,,;+                 ",
"                 +:<,,,<<:+                 ",
"                +#:,<,<<,:#+                ",
"                +#;:,,,,:;#+                ",
"                +%;:::,::;%+                ",
"                +%;;::::;;%+                ",
"                X%%;:;::;%%X                ",
"                X%;%;;:;%;%X                ",
"                +%:;;::;:;%+                ",
"               +%;::;:::,;;%+               ",
"               +;%,::,:,,:%;+               ",
"              +%#;,,:,,,,:;#%+              ",
"               +%:,<,,,,<::%+               ",
"               X:;,:<<:<,:;:X               ",
"              X;#%,;,,;,;:%#;X              ",
"              .X+#:%;,;:%:#+X.              ",
"              .@$X+;+:%+;+X$@.              ",
"              O$@..+X;XoX..@$O              ",
"             .@$O.O@$o@$@O.O$@.             ",
"             o$O..&>-.O->&..O$.             ",
"              .$@.oOoO.OOo.@$.              ",
"               ...@$@..@$@...               ",
"                 .@=O..O@O.                 ",
"                 O@$.  .$@O                 ",
"                 .$@.  .@$.                 ",
"                .O*O.  .O$O.                ",
"                .@*O.  .O*@.                ",
"               o@O=@.  .@=O@o               ",
"                oo@.    .@oo                "
};
