/* XPM */
static char *d421aa9da861447382b5f56cf5928424gsc96lQ587Y6EEmj[] = {
/* columns rows colors chars-per-pixel */
"32 32 5 1 ",
"  c None",
". c #0B0823",
"X c #971D1D",
"o c #AC3232",
"O c #D95763",
/* pixels */
"                                ",
"                                ",
"                                ",
"                                ",
"                                ",
"                                ",
"                                ",
"                                ",
"            ....  ....          ",
"            ....  ....          ",
"          ..oooo..oooo..        ",
"          ..oooo..oooo..        ",
"        ..ooOOoooooooooo..      ",
"        ..ooOOoooooooooo..      ",
"        ..oooooooooooooo..      ",
"        ..oooooooooooooo..      ",
"        ..XXooooooooooXX..      ",
"        ..XXooooooooooXX..      ",
"          ..XXooooooXX..        ",
"          ..XXooooooXX..        ",
"            ..XXooXX..          ",
"            ..XXooXX..          ",
"              ..XX..            ",
"              ..XX..            ",
"                ..              ",
"                ..              ",
"                                ",
"                                ",
"                                ",
"                                ",
"                                ",
"                                "
};
