/* XPM */
static char *c2162abe0b0c4b2de3f72b6a53e34e69cqnvccxNH4Qy7j83[] = {
/* columns rows colors chars-per-pixel */
"32 32 4 1 ",
"  c None",
". c #683923",
"X c #975B30",
"o c #D9A066",
/* pixels */
"    ..oo                ..XX    ",
"    ..oo                ..XX    ",
"    ..XXXXXXXXXXXXXXXXXX..oo    ",
"    ..XXXXXXXXXXXXXXXXXX..oo    ",
"    ......................oo    ",
"    ......................oo    ",
"    ..oo                ..XX    ",
"    ..oo                ..XX    ",
"    ..oo                ..XX    ",
"    ..oo                ..XX    ",
"    ..XXXXXXXXXXXXXXXXXX..oo    ",
"    ..XXXXXXXXXXXXXXXXXX..oo    ",
"    ......................XX    ",
"    ......................XX    ",
"    ..oo                ..XX    ",
"    ..oo                ..XX    ",
"    ..oo                ..XX    ",
"    ..oo                ..XX    ",
"    ..XXXXXXXXXXXXXXXXXX..XX    ",
"    ..XXXXXXXXXXXXXXXXXX..XX    ",
"    ......................XX    ",
"    ......................XX    ",
"    ..oo                ..oo    ",
"    ..oo                ..oo    ",
"    ..oo                ..oo    ",
"    ..oo                ..oo    ",
"    ..XXXXXXXXXXXXXXXXXX..XX    ",
"    ..XXXXXXXXXXXXXXXXXX..XX    ",
"    ......................XX    ",
"    ......................XX    ",
"    ..oo                ..oo    ",
"    ..oo                ..oo    "
};
