/* XPM */
static char *a9d4fd6be2904a1ce9161942ba1e70c7LyEUrsPWoGOCbJ5O[] = {
/* columns rows colors chars-per-pixel */
"32 32 5 1 ",
"  c #07051A",
". c #0B0823",
"X c #05021A",
"o c #040216",
"O c white",
/* pixels */
"  ..  XX    XX  ....    ....  XX",
"  ..  XX    XX  ....    ....  XX",
"    oo..    ooXXoooooo  oooo    ",
"    oo..    ooXXoooooo  oooo    ",
"..XX  oooo  oo  oooooo  oooo    ",
"..XX  oooo  oo  oooooo  oooo    ",
"....    ..oooo  XXoo  oo..  ..  ",
"....    ..oooo  XXoo  oo..  ..  ",
"..    ..  oooooo    ..ooXX..XX..",
"..    ..  oooooo    ..ooXX..XX..",
"..  oo  oo    ..    ..ooXX....XX",
"..  oo  oo    ..    ..ooXX....XX",
"XX..oo..    ..oo  ..      XXXX..",
"XX..oo..    ..oo  ..      XXXX..",
"....  XX          ......  ..XX..",
"....  XX          ......  ..XX..",
"  ..XX..XX..XX..XX..    ..XX..XX",
"  ..XX..XX..XX..XX..    ..XX..XX",
"....XX  ..XXXX..  XX..    ....XX",
"....XX  ..XXXX..  XX..    ....XX",
"..XX  ......  ......  ......  XX",
"..XX  ......  ......  ......  XX",
"XX..  ......XX..  ..XXXX....  XX",
"XX..  ......XX..  ..XXXX....  XX",
"  ..XX..XXXX..XX..XX....XX..XX..",
"  ..XX..XXXX..XX..XX....XX..XX..",
"  ....XX........XX........XX....",
"  ....XX........XX........XX....",
"........XX....XX..XX......XX....",
"........XX....XX..XX......XX....",
"......XX..XXXX......XX......XX..",
"......XX..XXXX......XX......XX.."
};
